<svg width="107" height="24" viewBox="0 0 107 24" fill="none" xmlns="http://www.w3.org/2000/svg"><path xmlns="http://www.w3.org/2000/svg" fill-rule="evenodd" clip-rule="evenodd" d="M22.764 3.984a5.824 5.824 0 0 0-1.232-2.09 5.912 5.912 0 0 0-1.96-1.402 5.804 5.804 0 0 0-4.669-.003 5.886 5.886 0 0 0-3.147 3.414 5.802 5.802 0 0 0-.276 1.157c-.055.39-.055.802-.049 1.167l.021 2.248.035 4.496.012 2.248c.002.375-.002.75.003 1.124.003.186.01.378.008.56.002.18-.01.36-.014.541a7.508 7.508 0 0 1-.142 1.082 4.927 4.927 0 0 1-.35 1.044 5.606 5.606 0 0 1-1.298 1.792c-1.106.998-2.62 1.542-4.105 1.416a5.322 5.322 0 0 1-2.13-.606 5.366 5.366 0 0 1-1.701-1.426 6.077 6.077 0 0 1-.61-.936 5.343 5.343 0 0 1-.425-1.034 5.089 5.089 0 0 1-.171-2.195c.055-.362.14-.72.255-1.063a6.17 6.17 0 0 1 .44-.982c.17-.31.371-.598.59-.86.215-.267.455-.507.72-.712 1.035-.845 2.408-1.208 3.81-1.213 1.453.002 2.905.024 4.358.015l-.011-1.535c-1.446.03-2.893.129-4.339.235a7.547 7.547 0 0 0-2.35.569 6.635 6.635 0 0 0-1.069.57 6.116 6.116 0 0 0-1.708 1.647 6.151 6.151 0 0 0-.586 1.025 7.145 7.145 0 0 0-.637 2.267c-.08.799-.03 1.617.157 2.412a6.8 6.8 0 0 0 1.003 2.258 6.492 6.492 0 0 0 1.84 1.788 6.37 6.37 0 0 0 2.48.92c.11.02.22.03.33.042.11.012.221.024.337.027.115.006.23.01.344.008a6.176 6.176 0 0 0 1.704-.24 7.088 7.088 0 0 0 1.289-.503c.413-.21.801-.47 1.167-.76a7.08 7.08 0 0 0 2.055-2.819c.09-.218.165-.443.226-.67a9.03 9.03 0 0 0 .256-1.384c.018-.233.042-.465.049-.697l.012-.302.014-.28.054-1.125.195-8.992.005-.281.002-.068.002-.047.005-.094a3.946 3.946 0 0 1 .23-1.087 3.89 3.89 0 0 1 .774-1.252 3.62 3.62 0 0 1 1.197-.856 3.607 3.607 0 0 1 1.441-.298c.5-.008.996.087 1.457.282.46.194.887.488 1.239.858.349.373.631.812.812 1.296a3.84 3.84 0 0 1 .236 1.54 3.853 3.853 0 0 1-2.805 3.544 4.04 4.04 0 0 1-.805.15l-.103.006c-.038.001-.061.005-.113.006l-2.913.078-.038 1.766 2.95.039.3-.003a5.9 5.9 0 0 0 1.197-.161 5.716 5.716 0 0 0 2.183-1.043 5.85 5.85 0 0 0 1.567-1.86 6.036 6.036 0 0 0 .395-4.758z" fill="#FD5F07"/></svg>